<?xml version="1.0" encoding="utf-8"?>
<svg version="1.1" id="Icons" xmlns="http://www.w3.org/2000/svg" xmlns:xlink="http://www.w3.org/1999/xlink" 
	 viewBox="0 0 32 32" xml:space="preserve">
<style type="text/css">
	.st0{fill:none;stroke:#000000;stroke-width:2;stroke-linecap:round;stroke-linejoin:round;stroke-miterlimit:10;}
	.st1{fill:none;stroke:#000000;stroke-width:2;stroke-linejoin:round;stroke-miterlimit:10;}
</style>
<path class="st0" d="M29,29H3v-6c0-1.1,0.9-2,2-2h22c1.1,0,2,0.9,2,2V29z"/>
<line class="st0" x1="21" y1="25" x2="25" y2="25"/>
<line class="st0" x1="17" y1="25" x2="18" y2="25"/>
<line class="st0" x1="7" y1="10" x2="7" y2="21"/>
<g><path class="st0" d="M15.7,17.8c2-2,3.3-4.8,3.3-7.8s-1.3-5.8-3.3-7.8"/></g>
<g><path class="st0" d="M12.9,15c1.3-1.3,2.1-3,2.1-5c0-2-0.8-3.7-2.1-5"/></g>
<g><path class="st0" d="M10,12.2c0.6-0.5,1-1.3,1-2.2s-0.4-1.6-1-2.2"/></g>
</svg>